<!--?xml version="1.0" encoding="utf-8"?-->
<!-- Generator: Adobe Illustrator 22.1.0, SVG Export Plug-In . SVG Version: 6.00 Build 0)  -->
<svg version="1.1" id="_x30_" xmlns="http://www.w3.org/2000/svg" xmlns:xlink="http://www.w3.org/1999/xlink" x="0px" y="0px" viewBox="0 0 512 512" style="enable-background:new 0 0 512 512;" xml:space="preserve">
<style type="text/css">
	.st0{fill:#231815;}
</style>
<g>
	<path class="st0" d="M135.583,229.841c-5.488-1.464-43.25,8.126-76.423,18.217c-0.632-9.335-1.69-31.538-1.69-31.538l-21.799,7.266
		c0.195,4.688,1.021,16.686,2.599,30.911c-12.751,4.257-23.103,8.169-28.03,10.871l6.661,21.799c0,0,10.479-4.348,24.368-9.963
		c3.778,24.172,9.62,47.455,18.019,49.322c16.349,3.633,49.653-7.872,52.075-14.533c2.422-6.66-3.633-16.955-3.633-16.955
		s-30.882,12.111-36.937,9.083c-3.821-1.91-7.159-19.973-9.255-35.022c22.711-8.966,45.883-17.663,47.403-16.447
		c3.028,2.422-10.294,17.56-10.294,17.56l13.927,3.028C112.573,273.439,144.666,232.264,135.583,229.841z"></path>
	<path class="st0" d="M122.262,189.271c-1.211,7.266,0,30.882,2.422,30.882c4.993,0,11.505,1.211,12.111-3.028
		c0.606-4.239,0.606-28.459,0-31.487C136.794,185.639,121.051,186.244,122.262,189.271z"></path>
	<path class="st0" d="M161.015,216.52c1.211-1.817,4.844-24.826,4.844-29.671c0-4.844-12.111-0.605-15.138,0.606
		c-3.028,1.211-2.422,25.432-1.817,28.459C148.905,215.915,159.804,218.337,161.015,216.52z"></path>
	<path class="st0" d="M209.701,284.995c-0.897-0.457-10.307,1.734-21.359,4.528l-1.915-15.904l20.679-4.913
		c0,0,1.181-13.55,0.65-15.181c-0.531-1.631-48.328,8.334-58.109,10.976l2.046,17.37l21.381-5.079
		c0.406,4.478,1.292,11.205,1.979,16.158c-11.518,3.014-21.957,5.827-24.026,6.271l2.604,15.204c0,0,52.689-11.556,55.409-12.622
		C211.759,300.738,211.863,286.096,209.701,284.995z"></path>
	<path class="st0" d="M390.212,236.354c-5.905,0.073-29.561,4.524-53.251,9.799c0.304-7.111,0.62-12.072,0.62-12.072l-21.382,3.925
		c-0.735,3.288-1.344,7.977-1.723,13.424c-11.439,2.846-21.312,5.602-27.071,7.757l3.821,23.802c0,0,10.101-3.221,23.2-7.294
		c1.158,17.668,5.169,34.696,14.29,37.399c16.756,4.966,47-7.668,47-7.668l-3.582-15.307c0,0-26.458,9.161-32.376,5.875
		c-2.622-1.456-3.347-13.776-3.342-27.046c18.122-5.471,35.096-10.317,36.446-9.708c2.973,1.341-4.94,16.151-4.94,16.151
		l12.047,1.733c0,0,7.808-12.391,14.302-22.414C400.762,244.689,401.128,236.219,390.212,236.354z"></path>
	<path class="st0" d="M380.89,199.586c-2.446,0.501-6.251,32.459-6.251,32.459l13.967-0.609l10.485-32.276
		C399.091,199.16,383.337,199.086,380.89,199.586z"></path>
	<path class="st0" d="M409.929,200.84c-2.446,0.501-7.83,26.936-7.909,28.751l10.206,2.259l13.379-29.121
		C425.605,202.729,412.374,200.34,409.929,200.84z"></path>
	<path class="st0" d="M500.259,283.644c-1.151-0.05-16.097,2.046-32.519,4.667l0.26-23.797c15.115-2.78,28.465-5.277,28.465-5.277
		l1.863-15.072c0,0-48.632,3.355-73.801,10.753c0,0-1.337,16.913,1.083,17.017c0.98,0.042,12.796-2.034,26.506-4.519l0.688,23.369
		c-12.973,2.238-24.508,4.499-28.265,5.954l1.11,16.412l75.799-14.909C501.446,298.241,502.678,283.749,500.259,283.644z"></path>
</g>
</svg>
